<?xml version="1.0" encoding="UTF-8" standalone="no"?>
<!-- Created with Inkscape (http://www.inkscape.org/) -->

<svg
   xmlns:dc="http://purl.org/dc/elements/1.1/"
   xmlns:cc="http://creativecommons.org/ns#"
   xmlns:rdf="http://www.w3.org/1999/02/22-rdf-syntax-ns#"
   xmlns:svg="http://www.w3.org/2000/svg"
   xmlns="http://www.w3.org/2000/svg"
   xmlns:sodipodi="http://sodipodi.sourceforge.net/DTD/sodipodi-0.dtd"
   xmlns:inkscape="http://www.inkscape.org/namespaces/inkscape"
   id="svg2"
   version="1.1"
   inkscape:version="0.48.4 r9939"
   width="743.75"
   height="1052.5"
   xml:space="preserve"
   sodipodi:docname="subscriptus-logo.svg"><metadata
     id="metadata8"><rdf:RDF><cc:Work
         rdf:about=""><dc:format>image/svg+xml</dc:format><dc:type
           rdf:resource="http://purl.org/dc/dcmitype/StillImage" /><dc:title /></cc:Work></rdf:RDF></metadata><defs
     id="defs6"><clipPath
       clipPathUnits="userSpaceOnUse"
       id="clipPath16"><path
         d="M 0,0 595,0 595,842 0,842 0,0 z"
         id="path18" /></clipPath></defs><sodipodi:namedview
     pagecolor="#ffffff"
     bordercolor="#666666"
     borderopacity="1"
     objecttolerance="10"
     gridtolerance="10"
     guidetolerance="10"
     inkscape:pageopacity="0"
     inkscape:pageshadow="2"
     inkscape:window-width="1920"
     inkscape:window-height="1031"
     id="namedview4"
     showgrid="false"
     inkscape:zoom="1"
     inkscape:cx="208.29449"
     inkscape:cy="526.25"
     inkscape:window-x="0"
     inkscape:window-y="25"
     inkscape:window-maximized="1"
     inkscape:current-layer="g10" /><g
     id="g10"
     inkscape:groupmode="layer"
     inkscape:label="subscriptus-logo"
     transform="matrix(1.25,0,0,-1.25,0,1052.5)"><g
       id="g12"><g
         id="g14"
         clip-path="url(#clipPath16)"><g
           id="g20"
           transform="translate(153.5146,399.7148)"
           style="fill:#71a82b;fill-opacity:1"><path
             d="m 0,0 c 4.435,0.101 9.234,0.155 14.247,0.155 l 8.581,0 c 5.993,0 10.703,6.831 10.703,13.317 0,7.59 -6.153,13.745 -13.743,13.745 -1.794,0 -3.51,-0.345 -5.082,-0.97 C 8.772,24.735 2.056,12.402 -8.078,12.402 c -8.505,0 -15.303,6.459 -16.18,14.495 -0.533,4.886 1.061,9.316 3.895,13.082 5.856,8.204 15.453,13.552 26.302,13.552 4.063,0 7.949,-0.75 11.531,-2.12 l 14.951,0 C 32.368,51.48 32.308,51.543 32.243,51.6 25.195,57.71 16,61.409 5.939,61.409 c -22.185,0 -40.168,-17.984 -40.168,-40.169 0,-8.011 2.077,-14.783 6.235,-21.24 L 0,0 z"
             style="fill:#71a82b;fill-opacity:1;fill-rule:evenodd;stroke:none"
             id="path22" /></g><g
           id="g24"
           transform="translate(165.6558,442.1953)"
           style="fill:#4897b9;fill-opacity:1"><path
             d="m 0,0 c -4.435,-0.099 -9.234,-0.154 -14.247,-0.154 l -8.581,0 c -5.993,0 -10.703,-6.83 -10.703,-13.316 0,-7.592 6.153,-13.745 13.743,-13.745 1.794,0 3.509,0.346 5.082,0.969 5.934,1.512 12.65,13.845 22.784,13.845 8.504,0 15.302,-6.458 16.179,-14.495 0.534,-4.885 -1.06,-9.315 -3.894,-13.081 -5.856,-8.204 -15.453,-13.554 -26.302,-13.554 -4.063,0 -7.95,0.752 -11.531,2.121 l -14.951,0 c 0.053,-0.069 0.113,-0.131 0.178,-0.188 7.047,-6.111 16.243,-9.809 26.304,-9.809 22.185,0 40.168,17.983 40.168,40.167 0,8.011 -2.077,14.783 -6.235,21.24 L 0,0 z"
             style="fill:#4897b9;fill-opacity:1;fill-rule:evenodd;stroke:none"
             id="path26" /></g></g></g><text
       transform="matrix(1,0,0,-1,219.5205,412.3975)"
       id="text28"
       style="fill:#524b41;fill-opacity:1"><tspan
         style="fill:#524b41;fill-opacity:1;fill-rule:nonzero;stroke:none;font-family:MicrogrammaDBolExt;font-variant:normal;font-weight:bold;font-stretch:normal;font-size:30;writing-mode:lr;-inkscape-font-specification:MicrogrammaD-BoldExte"
         x="0 25.89 54.48 81.72 107.61 134.88 161.88 171.09 197.1 221.31 249.9"
         y="0"
         sodipodi:role="line"
         id="tspan30">SUBSCRIPTUS</tspan></text>
</g></svg>